PathFileType	4	(X/Y/Z)	24_1_40_p0_0-269.trc
DataRate	CameraRate	NumFrames	NumMarkers	Units	OrigDataRate	OrigDataStartFrame	OrigNumFrames
59.0	59.0	5	27	m	59.0	101	270
Frame#	Time	RHip			RKnee			RAnkle			RBigToe			RSmallToe			RHeel			LHip			LKnee			LAnkle			LBigToe			LSmallToe			LHeel			Neck			Head			Nose			RShoulder			RElbow			RWrist			RThumb			RIndex			RPinky			LShoulder			LElbow			LWrist			LThumb			LIndex			LPinky			
		X1	Y1	Z1	X2	Y2	Z2	X3	Y3	Z3	X4	Y4	Z4	X5	Y5	Z5	X6	Y6	Z6	X7	Y7	Z7	X8	Y8	Z8	X9	Y9	Z9	X10	Y10	Z10	X11	Y11	Z11	X12	Y12	Z12	X13	Y13	Z13	X14	Y14	Z14	X15	Y15	Z15	X16	Y16	Z16	X17	Y17	Z17	X18	Y18	Z18	X19	Y19	Z19	X20	Y20	Z20	X21	Y21	Z21	X22	Y22	Z22	X23	Y23	Z23	X24	Y24	Z24	X25	Y25	Z25	X26	Y26	Z26	X27	Y27	Z27	
101	1.7118644067796611	0.43274530263276484	0.4396470130248468	0.8786085679939976	0.42233875414993066	0.5955780916906019	1.3064984791705148	0.4009607630063797	0.7257236924044315	1.7078524985562795	0.4137463145203192	0.46987786007787075	1.6745664476966038	0.4617099008933062	0.5181259190708537	1.6847050626649627	0.3731538110579347	0.8080189967624096	1.7742006570318265	0.23184807686631423	0.47388183208924234	0.8860364531295816	0.20913968707359723	0.5669388952911203	1.306787259875455	0.20924276477042905	0.6496295357292869	1.6845592368003994	0.25546931431248027	0.4569660691326915	1.6714696950007775	0.21586832671220077	0.463994426855331	1.6674659334965387	0.2068616763667481	0.6951948280062031	1.7422501331112163	0.32587564953703574	0.45402813968164507	0.34780300305375256	0.32896991640472534	0.3841908642250341	0.11152601072245756	0.3382538435311412	0.3087136808179185	0.22320262338729113	0.4835918304997963	0.4336591618469148	0.42286445865279765	0.5356489687980421	0.5392143043956085	0.6314521230655665	0.5252027148983336	0.3317531529438684	0.7510365016909212	0.49387032470853465	0.24377675343440838	0.8187558044618816	0.5021316570175377	0.24342662171683715	0.8230363019552149	0.5053110155793761	0.2706023282705037	0.8403934921704518	0.17849428353739838	0.4472958099294237	0.4383289167631178	0.1310878644899058	0.4308328083915706	0.6554501123884935	0.24586236941022271	0.31504915709731385	0.7525287237027948	0.32839895572534683	0.31033284341633827	0.8042287007294437	0.32993673851125627	0.26153087440991246	0.8147211733861699	0.2963715954042976	0.26033568902572707	0.8272071612115764
102	1.728813559322034	0.43211994529457876	0.4400695139580649	0.8824479541122164	0.4224697785281037	0.5957781992590768	1.3068664752175316	0.40099814595689826	0.7257702996524141	1.7078230243610455	0.40829467127967384	0.48436837268799265	1.6822263354809075	0.4614214187732344	0.5182538230908551	1.6847855979818471	0.37434515120356665	0.8066466935232874	1.7696957735085208	0.22586127250185584	0.48929514873550645	0.8938432179666523	0.20911861308092283	0.5670371322726595	1.306934040787702	0.20259183520504026	0.6648194745283934	1.691903027367899	0.2542178654244831	0.44333037180368867	1.6654482931160994	0.20992875537928168	0.4759025822742576	1.6780979282499295	0.20099053546326656	0.7105437252494251	1.743216412439349	0.3313793949571928	0.4417807494283493	0.3471704253557801	0.328931878809552	0.38425668095096865	0.11129998122116648	0.3378874839023084	0.3075285132575033	0.22010344422905678	0.4862361845524866	0.44529052019735466	0.4232156621768896	0.5353151210328602	0.5399415039116536	0.6347213498360059	0.5249613253324454	0.33033288528237903	0.7465687802921012	0.4944651254794011	0.24281157256501992	0.8137612797104742	0.5018429657688845	0.24163208403371655	0.8182528613452769	0.5136830889315637	0.26047419407216615	0.8369170429657934	0.18417262159070635	0.43511322913218053	0.43741423004398233	0.12978004355550707	0.4172169094140904	0.6502979456812049	0.2454289896789139	0.31370024380208794	0.744808202035247	0.33275448231506904	0.30889083307116616	0.7966386682372697	0.33543411143690327	0.24957903313953922	0.8117278134065156	0.30231099977914194	0.2735751607810891	0.8225334658877065
103	1.7457627118644068	0.43335548733208146	0.44181927363536067	0.8832087076215932	0.4225915186556412	0.5961602387718421	1.3067097044133458	0.40103796184962587	0.7259645914866354	1.707834150067295	0.40832063104291205	0.4843892463572384	1.6821942374459864	0.4615865379806628	0.5182348769971669	1.6848052894303303	0.37510394163408256	0.8094749530264872	1.7763728578943994	0.22586387423804283	0.4893344654755072	0.8941066595242954	0.20913612026343592	0.5674136046603849	1.3071027769411967	0.20253762985226345	0.665097181775378	1.6920035047652005	0.25411815722241277	0.4434681259266828	1.6655846349514334	0.2026875026187168	0.49136298049246	1.6817552729223668	0.20303246374049327	0.7254749797396225	1.749331571094101	0.3260570330048037	0.4536935270703648	0.34443978651195833	0.3249748638033054	0.38221392934368703	0.10839801045361606	0.33986755654473483	0.31830354688717544	0.21958588203042023	0.48631798016522826	0.44523776087882655	0.41928443346842903	0.5355557451009291	0.5395317777344897	0.6313840352007295	0.5250703912794306	0.330385702081945	0.7462864532110947	0.49410472496803004	0.24323948420679495	0.80944246422421	0.502203845007614	0.2412795465315938	0.8143397093579509	0.5091329884619826	0.2563904943126433	0.8327977726914768	0.1828873725675165	0.4244917193696908	0.4402250269421315	0.1297322401581906	0.41678864424381834	0.6503805391662156	0.2482632517963028	0.3161176190894693	0.7415315611321975	0.3319780019327841	0.30544403925249725	0.7815827765885215	0.33446268790301054	0.24936278496007827	0.7969029481970819	0.30237703982334196	0.27512209804862525	0.8196729899267993
104	1.7627118644067796	0.4300064982986355	0.4658552194025492	0.8844514727040201	0.4301595658877075	0.6143364875271063	1.316259780359361	0.40117187050069186	0.72584396351406	1.7077180481474914	0.4081859586274799	0.48480322756404487	1.6825138188342197	0.4614331532370677	0.5191827340591337	1.6851861158792827	0.3752547804292567	0.808753580718808	1.776638942198575	0.22619267750490105	0.4883659570464503	0.8979124393500372	0.2091173808642406	0.5676782323491961	1.3076222885266202	0.20246887942623468	0.6653345609128628	1.691975469900732	0.2539106239315558	0.443812019101886	1.6659232462228466	0.19584451659261154	0.5055302982132914	1.689204284167142	0.20434619221508746	0.7249696165714377	1.7433269906061055	0.32565597043261624	0.4542757855956268	0.3408840593221635	0.32660940885863754	0.3941201754043081	0.1105481729658358	0.33962811446407526	0.31741405674331935	0.216523470452355	0.4828168886830412	0.43273711648771457	0.411878870984228	0.5359485695610724	0.5387181106825252	0.6277661525746143	0.5253510216360531	0.33128842529973823	0.7386149756124761	0.48978695177816417	0.24327535937618444	0.795722938417607	0.5062421918456527	0.23159479300505179	0.8074558502712261	0.5091304686298153	0.25671200954327184	0.8254092567526928	0.17704881196882452	0.4344622156516373	0.43771393327329317	0.1295696019364661	0.41662052783837433	0.6504593837381956	0.2541533518345995	0.30498930628419463	0.7360816892379568	0.33603920712008556	0.27922204258962047	0.769986119432415	0.3382280007231527	0.22602234758202616	0.7842958505257632	0.30742439865240745	0.29758219946444636	0.8202493684924232
105	1.7796610169491525	0.42767421146169804	0.4532713383861776	0.881900199142497	0.4356956045135834	0.5994976410235663	1.3107724406066075	0.40728578389112985	0.7091194841548059	1.6997724897466893	0.4100580312759943	0.49833272554869806	1.6886055952241814	0.4614865931267983	0.5191131123219066	1.685148721099336	0.3744976041952781	0.805611218498338	1.770772977413401	0.23251872870760665	0.4748607287661062	0.8947551303953921	0.2089971512524151	0.567613416612628	1.3075208302508121	0.2023697672589523	0.6653269328471729	1.6918726751277862	0.2551608969659233	0.45752709909174566	1.6722109558035216	0.19580597969864355	0.5056988677052968	1.689298092281137	0.20433168387556394	0.7248525463859089	1.7428474882678295	0.3255272647504455	0.45454287596971765	0.3408279933611073	0.3194731473584805	0.394760634134333	0.11096878264485409	0.3395808489232963	0.3173686435981039	0.21650283644361557	0.48260458597773914	0.43299623054658254	0.4117276978278984	0.5358847924278656	0.5387518846971217	0.6275652038038281	0.5253575664667116	0.3315478488779544	0.7381135171286651	0.488954235525156	0.24461847385504235	0.789546051207405	0.5059092560349006	0.2325809732429922	0.803370748416121	0.5087562673522147	0.25494535403304674	0.8207827374357521	0.17671752687265602	0.4353310150103132	0.4338274462516919	0.13048445041942458	0.4256496490011377	0.6483937474160333	0.26012314073240617	0.3179371344728055	0.7342017241018894	0.34817189674924537	0.26441991549884186	0.7632287300453149	0.352601013552971	0.20316158553999225	0.7650986726965036	0.3124762560380587	0.28525386287385834	0.8107804068109971
